# xmcd
#
# Track frame offsets: 
#        150
#        16976
#        30964
#        40798
#        57382
#        71440
#        83556
#        95947
#        105376
#        117496
#        130234
#        144072
#        155724
#        167903
#        180806
#        197016
#        208214
#        220336
#        234532
#        247361
#        258103
#        270432
#        286747
#        299813
#
# Disc length: 4172 seconds
#
# Revision: 2
# Processed by: cddbd v1.5.2PL0 Copyright (c) Steve Scherf et al.
# Submitted via: ExactAudioCopyFreeDBPlugin 1.0
#
DISCID=5e104a18
DTITLE=Merle Haggard - 24 Greatest Hits
DYEAR=1995
DGENRE=Country
TTITLE0=Today I Started Loving You Again
TTITLE1=I'm A Lonesome Fugitive
TTITLE2=Mama Tried
TTITLE3=Daddy Frank (The Guitar Man)
TTITLE4=Always Wanting You
TTITLE5=Workin' Man Blues
TTITLE6=If We Make It Through December
TTITLE7=Legend Of Bonnie And Clyde
TTITLE8=The Bottle Let Me Down
TTITLE9=Swingin' Doors
TTITLE10=I Threw Away The Rose
TTITLE11=Carolyn
TTITLE12=Okie From Muskogee
TTITLE13=Fightin' Side Of Me
TTITLE14=Ramblin' Fever
TTITLE15=(My Friends Are Gonna Be) Strangers
TTITLE16=I Take A Lot Of Pride In What I Am
TTITLE17=Branded Man
TTITLE18=Sing Me Back Home
TTITLE19=Old Man From The Mountain
TTITLE20=Roots Of My Raising
TTITLE21=Mama's Hungry Eyes
TTITLE22=The Way I Am
TTITLE23=Holding Things Together
EXTD=TeeVee Records\nTVCD-6024
EXTT0=
EXTT1=
EXTT2=
EXTT3=
EXTT4=
EXTT5=
EXTT6=
EXTT7=
EXTT8=
EXTT9=
EXTT10=
EXTT11=
EXTT12=
EXTT13=
EXTT14=
EXTT15=
EXTT16=
EXTT17=
EXTT18=
EXTT19=
EXTT20=
EXTT21=
EXTT22=
EXTT23=
PLAYORDER=
